<?xml version="1.0" encoding="utf-8" ?>
<svg baseProfile="full" height="600" version="1.1" width="800" xmlns="http://www.w3.org/2000/svg" xmlns:ev="http://www.w3.org/2001/xml-events" xmlns:xlink="http://www.w3.org/1999/xlink"><defs /><polyline fill="none" points="0.0,347.368421053 8.08080808081,357.735247209 16.1616161616,368.102073365 24.2424242424,378.468899522 32.3232323232,388.835725678 40.404040404,399.202551834 48.4848484848,409.56937799 56.5656565657,419.936204147 64.6464646465,428.708133971 72.7272727273,434.928229665 80.8080808081,441.148325359 88.8888888889,447.368421053 96.9696969697,453.588516746 105.050505051,459.80861244 113.131313131,466.028708134 121.212121212,472.248803828 129.292929293,480.063795853 137.373737374,488.357256778 145.454545455,496.650717703 153.535353535,504.944178628 161.616161616,513.237639553 169.696969697,521.531100478 177.777777778,529.824561404 185.858585859,537.16108453 193.939393939,539.234449761 202.02020202,541.307814992 210.101010101,543.381180223 218.181818182,545.454545455 226.262626263,547.527910686 234.343434343,549.601275917 242.424242424,551.674641148 250.505050505,552.631578947 258.585858586,552.631578947 266.666666667,552.631578947 274.747474747,552.631578947 282.828282828,552.631578947 290.909090909,552.631578947 298.98989899,552.631578947 307.070707071,552.631578947 315.151515152,552.631578947 323.232323232,552.631578947 331.313131313,552.631578947 339.393939394,552.631578947 347.474747475,552.631578947 355.555555556,552.631578947 363.636363636,552.631578947 371.717171717,552.631578947 379.797979798,552.631578947 387.878787879,552.631578947 395.95959596,552.631578947 404.04040404,552.631578947 412.121212121,552.631578947 420.202020202,552.631578947 428.282828283,552.631578947 436.363636364,542.583732057 444.444444444,528.070175439 452.525252525,513.55661882 460.606060606,499.043062201 468.686868687,484.529505582 476.767676768,470.015948963 484.848484848,455.502392344 492.929292929,440.829346093 501.01010101,424.242424242 509.090909091,407.655502392 517.171717172,391.068580542 525.252525253,374.481658692 533.333333333,357.894736842 541.414141414,341.307814992 549.494949495,324.720893142 557.575757576,313.875598086 565.656565657,309.728867624 573.737373737,305.582137161 581.818181818,301.435406699 589.898989899,297.288676236 597.97979798,293.141945774 606.060606061,288.995215311 614.141414141,284.848484848 622.222222222,271.929824561 630.303030303,257.416267943 638.383838384,242.902711324 646.464646465,228.389154705 654.545454545,213.875598086 662.626262626,199.362041467 670.707070707,184.848484848 678.787878788,171.291866029 686.868686869,160.925039872 694.949494949,150.558213716 703.03030303,140.19138756 711.111111111,129.824561404 719.191919192,119.457735247 727.272727273,109.090909091 735.353535354,98.7240829346 743.434343434,87.0813397129 751.515151515,74.6411483254 759.595959596,62.2009569378 767.676767677,49.7607655502 775.757575758,37.3205741627 783.838383838,24.8803827751 791.919191919,12.4401913876 800.0,0.0" stroke="#000000" stroke-width="2" /></svg>