<svg id="shape" xmlns="http://www.w3.org/2000/svg" viewBox="0 0 1493 350">
  <defs>
    <style>
      .cls-1 {
        fill: red;
        opacity: 0.6;
      }
    </style>
  </defs>
  <title>shape_profile</title>
  <polygon class="cls-1" points="1436 0 1409 0 1403 27 1379 29 1349 156 1325 175 1263 175 824 224 315 195 249 195 24 243 0 249 0 257 24 263 279 332 294 332 294 350 324 350 324 332 423 332 423 350 453 350 453 332 552 332 552 350 582 350 582 332 681 332 681 350 711 350 711 332 810 332 810 350 840 350 840 332 939 332 939 350 969 350 969 332 1068 332 1068 350 1098 350 1098 332 1197 332 1197 350 1227 350 1227 332 1326 332 1326 350 1356 350 1356 332 1448 332 1457 350 1476 350 1493 332 1493 150 1436 0"/>
</svg>
